<html>
<head>
<meta charset="UTF-8">
<meta name="viewport" content="width=device-width, initial-scale=1.0"/>

<style>
.comment
{
    padding-left: 20px;
    margin-top: 4px;
    margin-right: 4px;
    margin-bottom: 4px;
    border: 2px #000 solid;
}
.submission
{
    border: 4px #00f solid;
    padding-left: 20px;
}
.hidden
{
    display: none;
}
</style>
</head>
<body><div class="submission" id="t3_5y0m8h">
    <p class="userinfo">
        <a href="https://www.reddit.com/u/jodorowsthesky">jodorowsthesky</a>
        <span class="score"> | 23 points</span>
        <span class="timestamp"> | Mar 07 2017 14:28:52</span>
    </p>
    <strong>[MOVIE] Grizzly.Man.2005.720p.BRRip.X264.AC3-PLAYNOW [DOCU][3GB]</strong>
    <p><p>.nz/#!cIAXHD7K!NQVcRRhRmdlBRgRTmYJeUdyQ4tdPXUz9AUrBbprJEmM  </p>
<pre><code>Format                                   : Matroska
Format version                           : Version 2
File size                                : 3.05 GiB
Duration                                 : 1 h 44 min
Overall bit rate                         : 4 180 kb/s
Encoded date                             : UTC 2016-01-28 05:35:43
Writing application                      : mkvmerge v8.5.2 ('Crosses') 32bit
Writing library                          : libebml v1.3.3 + libmatroska v1.4.4

Video
ID                                       : 1
Format                                   : AVC
Format/Info                              : Advanced Video Codec
Format profile                           : High@L4.1
Format settings, CABAC                   : Yes
Format settings, ReFrames                : 4 frames
Codec ID                                 : V_MPEG4/ISO/AVC
Duration                                 : 1 h 44 min
Bit rate                                 : 3 767 kb/s
Width                                    : 1 280 pixels
Height                                   : 720 pixels
Display aspect ratio                     : 16:9
Frame rate mode                          : Constant
Frame rate                               : 23.976 (24000/1001) FPS
Color space                              : YUV
Chroma subsampling                       : 4:2:0
Bit depth                                : 8 bits
Scan type                                : Progressive
Bits/(Pixel*Frame)                       : 0.170
Stream size                              : 2.72 GiB (89%)
Writing library                          : x264 core 148 r2638 7599210
Encoding settings                        : cabac=1 / ref=1 / deblock=1:0:0 / analyse=0x3:0x3 / me=dia / subme=1 / psy=1 / psy_rd=1.00:0.00 / mixed_ref=0 / me_range=16 / chroma_me=1 / trellis=0 / 8x8dct=1 / cqm=0 / deadzone=21,11 / fast_pskip=1 / chroma_qp_offset=0 / threads=48 / lookahead_threads=5 / sliced_threads=0 / nr=0 / decimate=1 / interlaced=0 / bluray_compat=0 / constrained_intra=0 / bframes=3 / b_pyramid=2 / b_adapt=1 / b_bias=0 / direct=1 / weightb=1 / open_gop=0 / weightp=1 / keyint=240 / keyint_min=23 / scenecut=40 / intra_refresh=0 / rc_lookahead=0 / rc=abr / mbtree=0 / bitrate=3767 / ratetol=1.0 / qcomp=0.60 / qpmin=0 / qpmax=69 / qpstep=4 / vbv_maxrate=62500 / vbv_bufsize=78125 / nal_hrd=none / filler=0 / ip_ratio=1.40 / pb_ratio=1.30 / aq=1:1.00
Default                                  : Yes
Forced                                   : No

Audio
ID                                       : 2
Format                                   : AC-3
Format/Info                              : Audio Coding 3
Mode extension                           : CM (complete main)
Format settings, Endianness              : Big
Codec ID                                 : A_AC3
Duration                                 : 1 h 44 min
Bit rate mode                            : Constant
Bit rate                                 : 448 kb/s
Channel(s)                               : 6 channels
Channel positions                        : Front: L C R, Side: L R, LFE
Sampling rate                            : 48.0 kHz
Frame rate                               : 31.250 FPS (1536 spf)
Compression mode                         : Lossy
Stream size                              : 335 MiB (11%)
Language                                 : English
Default                                  : Yes
Forced                                   : No
</code></pre></p>
    <p class="toolbar">
        <a href="https://www.reddit.com/r/megalinks/comments/5y0m8h">permalink</a>
    </p>
</div>
<div class="comment" id="t1_dem9s8z">
    <p class="userinfo">
        <a
        class="toggle_hide_button"
        href="javascript:void(0)"
        onclick="toggle_collapse(this.parentElement.parentElement)">[-]
        </a>
        <a href="https://www.reddit.com/u/SubZorro">SubZorro</a>
        <span class="score"> | 1 points</span>
        <span class="timestamp"> | Mar 07 2017 14:31:05</span>
    </p>
    <div class="collapsible">
        <h5>Subtitles for this movie:</h5>
<hr>
<blockquote>
<ul>
<li>
<p><strong>Grizzly.Man.LIMITED.DVDRip.XviD-NeDiVx</strong> - <code>1 CD</code> - <a href="http://dl.opensubtitles.org/en/download/vrf-c436a324/sub/182896">Download Subtitle</a></p>
</li>
<li>
<p><strong>Grizzly.Man.2005.DVDRip.XviD</strong> - <code>1 CD</code> - <a href="http://dl.opensubtitles.org/en/download/vrf-68732b7d/sub/4211497">Download Subtitle</a></p>
</li>
<li>
<p><strong>Grizzly.Man.2005.iNTERNAL.BDRip.x264-GHOULS</strong> - <code>1 CD</code> - <a href="http://dl.opensubtitles.org/en/download/vrf-90c9915c/sub/6412813">Download Subtitle</a></p>
</li>
<li>
<p><strong>Grizzly.Man.2005.720p.BRRip.900MB.MkvCage.com</strong> - <code>1 CD</code> - <a href="http://dl.opensubtitles.org/en/download/vrf-d7ddcc47/sub/6492028">Download Subtitle</a></p>
</li>
<li>
<p><strong>Grizzly Man LIMITED.DVDRip.XviD-NeDiVx</strong> - <code>1 CD</code> - <a href="http://dl.opensubtitles.org/en/download/vrf-67ef9be7/sub/238643">Download Subtitle</a></p>
</li>
<li>
<p><strong>Grizzly Man</strong> - <code>1 CD</code> - <a href="http://dl.opensubtitles.org/en/download/vrf-157dd58a/sub/127325">Download Subtitle</a></p>
</li>
</ul>
</blockquote>
<hr>
<p>^This ^list ^of ^subtitles ^are ^taken ^from <a href="http://www.opensubtitles.org">^opensubtitles.org</a> ^| ^For ^feedback ^or ^suggestions ^contact <a href="http://www.reddit.com/message/compose/?to=indigo6alpha">^/u/indigo6alpha</a></p>
        <p class="toolbar">
            <a href="https://www.reddit.com/r/megalinks/comments/5y0m8h/_/dem9s8z">permalink</a>
        </p>
        
    </div>
</div>
</body>

<script>
function toggle_collapse(comment_div)
{
    var button = comment_div.getElementsByClassName("toggle_hide_button")[0];
    var collapsible = comment_div.getElementsByClassName("collapsible")[0];
    if (collapsible.classList.contains("hidden"))
    {
        collapsible.classList.remove("hidden");
        button.innerText = "[-]";
    }
    else
    {
        collapsible.classList.add("hidden");
        button.innerText = "[+]";
    }
}
</script>
</html>
